<svg width="20" height="20" viewBox="0 0 20 20" fill="none" xmlns="http://www.w3.org/2000/svg">
<path fill-rule="evenodd" clip-rule="evenodd" d="M19.5607 2.56066C20.1464 1.97487 20.1464 1.02513 19.5607 0.43934C18.9749 -0.146447 18.0251 -0.146447 17.4393 0.43934L10 7.87868L2.56066 0.43934C1.97487 -0.146447 1.02513 -0.146447 0.43934 0.43934C-0.146446 1.02513 -0.146446 1.97487 0.43934 2.56066L7.87868 10L0.43934 17.4393C-0.146447 18.0251 -0.146447 18.9749 0.43934 19.5607C1.02512 20.1464 1.97487 20.1464 2.56066 19.5607L10 12.1213L17.4393 19.5607C18.0251 20.1464 18.9749 20.1464 19.5607 19.5607C20.1464 18.9749 20.1464 18.0251 19.5607 17.4393L12.1213 10L19.5607 2.56066Z" fill="#E84B46"/>
</svg>
