<svg width="22" height="21" viewBox="0 0 22 21" fill="none" xmlns="http://www.w3.org/2000/svg">
<path fill-rule="evenodd" clip-rule="evenodd" d="M20.5 10.5C20.5 15.7467 16.2467 20 11 20C5.75329 20 1.5 15.7467 1.5 10.5C1.5 5.25329 5.75329 1 11 1C16.2467 1 20.5 5.25329 20.5 10.5ZM21.5 10.5C21.5 16.299 16.799 21 11 21C5.20101 21 0.5 16.299 0.5 10.5C0.5 4.70101 5.20101 0 11 0C16.799 0 21.5 4.70101 21.5 10.5ZM10.25 15V11.25H6.5V9.75H10.25V6H11.75V9.75H15.5V11.25H11.75V15H10.25Z" fill="#E84B46"/>
</svg>
