<svg width="20" height="20" viewBox="0 0 20 20" fill="none" xmlns="http://www.w3.org/2000/svg">
<path fill-rule="evenodd" clip-rule="evenodd" d="M14.8865 8.44461C14.8865 12.0031 12.0018 14.8879 8.44327 14.8879C4.88475 14.8879 2 12.0031 2 8.44461C2 4.88609 4.88475 2.00134 8.44327 2.00134C12.0018 2.00134 14.8865 4.88609 14.8865 8.44461ZM13.6647 15.0803C12.2279 16.2124 10.4145 16.8879 8.44327 16.8879C3.78018 16.8879 0 13.1077 0 8.44461C0 3.78152 3.78018 0.00134277 8.44327 0.00134277C13.1064 0.00134277 16.8865 3.78152 16.8865 8.44461C16.8865 10.4158 16.211 12.2293 15.0789 13.6661L19.7044 18.2916C20.0949 18.6821 20.0949 19.3153 19.7044 19.7058C19.3139 20.0963 18.6807 20.0963 18.2902 19.7058L13.6647 15.0803Z" fill="#29324F"/>
</svg>
